<?xml version="1.0" encoding="UTF-8"?><svg id="a" xmlns="http://www.w3.org/2000/svg" xmlns:xlink="http://www.w3.org/1999/xlink" viewBox="0 0 1640 1640"><defs><style>.k,.l{fill:#fff;}.m{mask:url(#b);}.n{stroke-width:38.44px;}.n,.o{fill:none;stroke-miterlimit:10.25;}.n,.o,.l{stroke:#fff;}.p{fill:rgba(255,0,0,0);}.o{stroke-width:102.5px;}.l{stroke-miterlimit:10;}</style><mask id="b" x="178.07" y="190.54" width="1284.27" height="1227.25" maskUnits="userSpaceOnUse"><g id="c"><rect class="k" x="232.91" y="253.97" width="1174.19" height="1132.06"/><path id="d" d="M1304.59,712.17H335.41l783.97,571.36L820,356.47l-301.91,927.06,786.51-571.36Z"/></g></mask></defs><g><g class="m"><path id="e" class="o" d="M1093.65,1201.48L820,356.47l-301.91,927.06,786.51-571.36H335.41l297.96,217.15"/></g><path id="f" class="k" d="M667.38,661.43h304.94l-37.59,50.38h-229.78l-37.57-50.38Z"/><path id="g" class="p" d="M667.38,661.43h304.94l-37.59,50.38h-229.78l-37.57-50.38Z"/><path id="h" class="k" d="M633.58,929.03l88-267.6h-54.2l-96.15,287.41,62.35-19.81Z"/><path id="i" class="l" d="M972.32,661.43l95.27,287.41-46.97,34.59-85.43-271.62,37.13-50.38Z"/></g><polygon class="k" points="1010.78 991.79 1067.59 949.53 1004.81 929.03 756.63 1110.54 833.73 1117.58 1010.78 991.79"/><path id="j" class="n" d="M368.9,1052.93c0,36.05-28.7,65.29-64.06,65.29s-64.06-29.24-64.06-65.29,28.7-65.29,64.06-65.29,64.06,29.26,64.06,65.29Z"/></svg>